<mxfile host="app.diagrams.net" modified="2021-07-08T02:56:13.747Z" agent="5.0 (Windows NT 10.0; Win64; x64) AppleWebKit/537.36 (KHTML, like Gecko) Chrome/91.0.4472.124 Safari/537.36" etag="aXiKlOFzCJCpMzc9nKgZ" version="14.8.5" type="github">
  <diagram id="Dcursj14XvYpVTORu42v" name="Page-1">
    <mxGraphModel dx="782" dy="478" grid="1" gridSize="10" guides="1" tooltips="1" connect="1" arrows="1" fold="1" page="1" pageScale="1" pageWidth="827" pageHeight="1169" math="0" shadow="0">
      <root>
        <mxCell id="0" />
        <mxCell id="1" parent="0" />
        <mxCell id="HRm3rRs8Pc81v3qyeUwA-1" value="Nhân Viên" style="rounded=0;whiteSpace=wrap;html=1;" vertex="1" parent="1">
          <mxGeometry x="130" y="200" width="120" height="60" as="geometry" />
        </mxCell>
        <mxCell id="HRm3rRs8Pc81v3qyeUwA-2" value="Văn Phòng" style="rounded=0;whiteSpace=wrap;html=1;" vertex="1" parent="1">
          <mxGeometry x="590" y="200" width="120" height="60" as="geometry" />
        </mxCell>
        <mxCell id="HRm3rRs8Pc81v3qyeUwA-3" value="Sản Phẩm BĐS" style="rounded=0;whiteSpace=wrap;html=1;" vertex="1" parent="1">
          <mxGeometry x="590" y="430" width="120" height="60" as="geometry" />
        </mxCell>
        <mxCell id="HRm3rRs8Pc81v3qyeUwA-4" value="Thân Nhân" style="rounded=0;whiteSpace=wrap;html=1;" vertex="1" parent="1">
          <mxGeometry x="130" y="20" width="120" height="60" as="geometry" />
        </mxCell>
        <mxCell id="HRm3rRs8Pc81v3qyeUwA-5" value="thuộc" style="rhombus;whiteSpace=wrap;html=1;fillColor=#ffe6cc;strokeColor=#d79b00;" vertex="1" parent="1">
          <mxGeometry x="380" y="170" width="100" height="60" as="geometry" />
        </mxCell>
        <mxCell id="HRm3rRs8Pc81v3qyeUwA-6" value="Là trưởng phòng" style="rhombus;whiteSpace=wrap;html=1;fillColor=#ffe6cc;strokeColor=#d79b00;" vertex="1" parent="1">
          <mxGeometry x="380" y="240" width="100" height="60" as="geometry" />
        </mxCell>
        <mxCell id="HRm3rRs8Pc81v3qyeUwA-7" value="Có" style="rhombus;whiteSpace=wrap;html=1;fillColor=#ffe6cc;strokeColor=#d79b00;" vertex="1" parent="1">
          <mxGeometry x="150" y="100" width="80" height="60" as="geometry" />
        </mxCell>
        <mxCell id="HRm3rRs8Pc81v3qyeUwA-8" value="Rao Bán" style="rhombus;whiteSpace=wrap;html=1;fillColor=#ffe6cc;strokeColor=#d79b00;" vertex="1" parent="1">
          <mxGeometry x="605" y="310" width="90" height="70" as="geometry" />
        </mxCell>
        <mxCell id="HRm3rRs8Pc81v3qyeUwA-10" value="Chủ sở hữu" style="rounded=0;whiteSpace=wrap;html=1;" vertex="1" parent="1">
          <mxGeometry x="130" y="430" width="120" height="60" as="geometry" />
        </mxCell>
        <mxCell id="HRm3rRs8Pc81v3qyeUwA-11" value="sở hữu" style="rhombus;whiteSpace=wrap;html=1;fillColor=#ffe6cc;strokeColor=#d79b00;" vertex="1" parent="1">
          <mxGeometry x="372" y="430" width="84" height="60" as="geometry" />
        </mxCell>
        <mxCell id="HRm3rRs8Pc81v3qyeUwA-12" value="" style="endArrow=none;html=1;exitX=1;exitY=0.5;exitDx=0;exitDy=0;entryX=0;entryY=0.5;entryDx=0;entryDy=0;" edge="1" parent="1" source="HRm3rRs8Pc81v3qyeUwA-1" target="HRm3rRs8Pc81v3qyeUwA-5">
          <mxGeometry width="50" height="50" relative="1" as="geometry">
            <mxPoint x="380" y="370" as="sourcePoint" />
            <mxPoint x="430" y="320" as="targetPoint" />
          </mxGeometry>
        </mxCell>
        <mxCell id="HRm3rRs8Pc81v3qyeUwA-14" value="" style="endArrow=none;html=1;exitX=1;exitY=0.5;exitDx=0;exitDy=0;entryX=0;entryY=0.5;entryDx=0;entryDy=0;" edge="1" parent="1" source="HRm3rRs8Pc81v3qyeUwA-1" target="HRm3rRs8Pc81v3qyeUwA-6">
          <mxGeometry width="50" height="50" relative="1" as="geometry">
            <mxPoint x="260" y="240" as="sourcePoint" />
            <mxPoint x="390" y="160" as="targetPoint" />
          </mxGeometry>
        </mxCell>
        <mxCell id="HRm3rRs8Pc81v3qyeUwA-15" value="" style="endArrow=none;html=1;exitX=1;exitY=0.5;exitDx=0;exitDy=0;entryX=0;entryY=0.5;entryDx=0;entryDy=0;" edge="1" parent="1" source="HRm3rRs8Pc81v3qyeUwA-6" target="HRm3rRs8Pc81v3qyeUwA-2">
          <mxGeometry width="50" height="50" relative="1" as="geometry">
            <mxPoint x="270" y="250" as="sourcePoint" />
            <mxPoint x="400" y="170" as="targetPoint" />
          </mxGeometry>
        </mxCell>
        <mxCell id="HRm3rRs8Pc81v3qyeUwA-16" value="" style="endArrow=none;html=1;exitX=0;exitY=0.5;exitDx=0;exitDy=0;entryX=1;entryY=0.5;entryDx=0;entryDy=0;" edge="1" parent="1" source="HRm3rRs8Pc81v3qyeUwA-2" target="HRm3rRs8Pc81v3qyeUwA-5">
          <mxGeometry width="50" height="50" relative="1" as="geometry">
            <mxPoint x="280" y="260" as="sourcePoint" />
            <mxPoint x="410" y="180" as="targetPoint" />
          </mxGeometry>
        </mxCell>
        <mxCell id="HRm3rRs8Pc81v3qyeUwA-17" value="" style="endArrow=none;html=1;exitX=1;exitY=0.5;exitDx=0;exitDy=0;entryX=0;entryY=0.5;entryDx=0;entryDy=0;" edge="1" parent="1" source="HRm3rRs8Pc81v3qyeUwA-10" target="HRm3rRs8Pc81v3qyeUwA-11">
          <mxGeometry width="50" height="50" relative="1" as="geometry">
            <mxPoint x="290" y="270" as="sourcePoint" />
            <mxPoint x="420" y="190" as="targetPoint" />
          </mxGeometry>
        </mxCell>
        <mxCell id="HRm3rRs8Pc81v3qyeUwA-18" value="" style="endArrow=none;html=1;exitX=1;exitY=0.5;exitDx=0;exitDy=0;entryX=0;entryY=0.5;entryDx=0;entryDy=0;" edge="1" parent="1" source="HRm3rRs8Pc81v3qyeUwA-11" target="HRm3rRs8Pc81v3qyeUwA-3">
          <mxGeometry width="50" height="50" relative="1" as="geometry">
            <mxPoint x="300" y="280" as="sourcePoint" />
            <mxPoint x="430" y="200" as="targetPoint" />
          </mxGeometry>
        </mxCell>
        <mxCell id="HRm3rRs8Pc81v3qyeUwA-19" value="" style="endArrow=none;html=1;exitX=0.5;exitY=0;exitDx=0;exitDy=0;entryX=0.5;entryY=1;entryDx=0;entryDy=0;" edge="1" parent="1" source="HRm3rRs8Pc81v3qyeUwA-3" target="HRm3rRs8Pc81v3qyeUwA-8">
          <mxGeometry width="50" height="50" relative="1" as="geometry">
            <mxPoint x="310" y="290" as="sourcePoint" />
            <mxPoint x="440" y="210" as="targetPoint" />
          </mxGeometry>
        </mxCell>
        <mxCell id="HRm3rRs8Pc81v3qyeUwA-20" value="" style="endArrow=none;html=1;exitX=0.5;exitY=0;exitDx=0;exitDy=0;entryX=0.5;entryY=1;entryDx=0;entryDy=0;" edge="1" parent="1" source="HRm3rRs8Pc81v3qyeUwA-8" target="HRm3rRs8Pc81v3qyeUwA-2">
          <mxGeometry width="50" height="50" relative="1" as="geometry">
            <mxPoint x="320" y="300" as="sourcePoint" />
            <mxPoint x="450" y="220" as="targetPoint" />
          </mxGeometry>
        </mxCell>
        <mxCell id="HRm3rRs8Pc81v3qyeUwA-21" value="" style="endArrow=none;html=1;exitX=0.5;exitY=0;exitDx=0;exitDy=0;entryX=0.5;entryY=1;entryDx=0;entryDy=0;" edge="1" parent="1" source="HRm3rRs8Pc81v3qyeUwA-1" target="HRm3rRs8Pc81v3qyeUwA-7">
          <mxGeometry width="50" height="50" relative="1" as="geometry">
            <mxPoint x="330" y="310" as="sourcePoint" />
            <mxPoint x="460" y="230" as="targetPoint" />
          </mxGeometry>
        </mxCell>
        <mxCell id="HRm3rRs8Pc81v3qyeUwA-22" value="" style="endArrow=none;html=1;exitX=0.5;exitY=1;exitDx=0;exitDy=0;entryX=0.5;entryY=0;entryDx=0;entryDy=0;" edge="1" parent="1" source="HRm3rRs8Pc81v3qyeUwA-4" target="HRm3rRs8Pc81v3qyeUwA-7">
          <mxGeometry width="50" height="50" relative="1" as="geometry">
            <mxPoint x="340" y="320" as="sourcePoint" />
            <mxPoint x="470" y="240" as="targetPoint" />
          </mxGeometry>
        </mxCell>
        <mxCell id="HRm3rRs8Pc81v3qyeUwA-23" value="tên chủ sở hữu" style="ellipse;whiteSpace=wrap;html=1;" vertex="1" parent="1">
          <mxGeometry x="60" y="540" width="90" height="50" as="geometry" />
        </mxCell>
        <mxCell id="HRm3rRs8Pc81v3qyeUwA-24" value="&lt;u&gt;Mã chủ sở hữu&lt;/u&gt;" style="ellipse;whiteSpace=wrap;html=1;" vertex="1" parent="1">
          <mxGeometry x="20" y="470" width="90" height="50" as="geometry" />
        </mxCell>
        <mxCell id="HRm3rRs8Pc81v3qyeUwA-25" value="địa chỉ" style="ellipse;whiteSpace=wrap;html=1;" vertex="1" parent="1">
          <mxGeometry x="190" y="540" width="90" height="50" as="geometry" />
        </mxCell>
        <mxCell id="HRm3rRs8Pc81v3qyeUwA-27" value="Số điện thoại" style="ellipse;whiteSpace=wrap;html=1;" vertex="1" parent="1">
          <mxGeometry x="20" y="390" width="90" height="50" as="geometry" />
        </mxCell>
        <mxCell id="HRm3rRs8Pc81v3qyeUwA-29" value="địa chỉ" style="ellipse;whiteSpace=wrap;html=1;" vertex="1" parent="1">
          <mxGeometry x="710" y="500" width="90" height="50" as="geometry" />
        </mxCell>
        <mxCell id="HRm3rRs8Pc81v3qyeUwA-30" value="&lt;u&gt;mã số BĐS&lt;/u&gt;" style="ellipse;whiteSpace=wrap;html=1;" vertex="1" parent="1">
          <mxGeometry x="590" y="535" width="90" height="50" as="geometry" />
        </mxCell>
        <mxCell id="HRm3rRs8Pc81v3qyeUwA-32" value="&lt;u&gt;Mã số văn phòng&lt;/u&gt;" style="ellipse;whiteSpace=wrap;html=1;" vertex="1" parent="1">
          <mxGeometry x="737" y="150" width="90" height="50" as="geometry" />
        </mxCell>
        <mxCell id="HRm3rRs8Pc81v3qyeUwA-33" value="Địa điểm" style="ellipse;whiteSpace=wrap;html=1;" vertex="1" parent="1">
          <mxGeometry x="730" y="230" width="90" height="50" as="geometry" />
        </mxCell>
        <mxCell id="HRm3rRs8Pc81v3qyeUwA-35" value="&lt;u&gt;Mã nhân viên&lt;/u&gt;" style="ellipse;whiteSpace=wrap;html=1;" vertex="1" parent="1">
          <mxGeometry x="145" y="300" width="90" height="50" as="geometry" />
        </mxCell>
        <mxCell id="HRm3rRs8Pc81v3qyeUwA-36" value="Tên nhân viên" style="ellipse;whiteSpace=wrap;html=1;" vertex="1" parent="1">
          <mxGeometry x="20" y="220" width="90" height="50" as="geometry" />
        </mxCell>
        <mxCell id="HRm3rRs8Pc81v3qyeUwA-39" value="" style="endArrow=none;html=1;exitX=0.5;exitY=1;exitDx=0;exitDy=0;entryX=0.5;entryY=0;entryDx=0;entryDy=0;" edge="1" parent="1" source="HRm3rRs8Pc81v3qyeUwA-10" target="HRm3rRs8Pc81v3qyeUwA-25">
          <mxGeometry width="50" height="50" relative="1" as="geometry">
            <mxPoint x="260" y="470" as="sourcePoint" />
            <mxPoint x="380" y="480" as="targetPoint" />
          </mxGeometry>
        </mxCell>
        <mxCell id="HRm3rRs8Pc81v3qyeUwA-40" value="" style="endArrow=none;html=1;exitX=0.25;exitY=1;exitDx=0;exitDy=0;entryX=0.5;entryY=0;entryDx=0;entryDy=0;" edge="1" parent="1" source="HRm3rRs8Pc81v3qyeUwA-10" target="HRm3rRs8Pc81v3qyeUwA-23">
          <mxGeometry width="50" height="50" relative="1" as="geometry">
            <mxPoint x="270" y="480" as="sourcePoint" />
            <mxPoint x="390" y="490" as="targetPoint" />
          </mxGeometry>
        </mxCell>
        <mxCell id="HRm3rRs8Pc81v3qyeUwA-41" value="" style="endArrow=none;html=1;exitX=1;exitY=0;exitDx=0;exitDy=0;entryX=0;entryY=0.5;entryDx=0;entryDy=0;" edge="1" parent="1" source="HRm3rRs8Pc81v3qyeUwA-24" target="HRm3rRs8Pc81v3qyeUwA-10">
          <mxGeometry width="50" height="50" relative="1" as="geometry">
            <mxPoint x="280" y="490" as="sourcePoint" />
            <mxPoint x="400" y="500" as="targetPoint" />
          </mxGeometry>
        </mxCell>
        <mxCell id="HRm3rRs8Pc81v3qyeUwA-42" value="" style="endArrow=none;html=1;exitX=1;exitY=0.5;exitDx=0;exitDy=0;entryX=0;entryY=0;entryDx=0;entryDy=0;" edge="1" parent="1" source="HRm3rRs8Pc81v3qyeUwA-27" target="HRm3rRs8Pc81v3qyeUwA-10">
          <mxGeometry width="50" height="50" relative="1" as="geometry">
            <mxPoint x="290" y="500" as="sourcePoint" />
            <mxPoint x="410" y="510" as="targetPoint" />
          </mxGeometry>
        </mxCell>
        <mxCell id="HRm3rRs8Pc81v3qyeUwA-43" value="" style="endArrow=none;html=1;exitX=0.5;exitY=1;exitDx=0;exitDy=0;entryX=0.5;entryY=0;entryDx=0;entryDy=0;" edge="1" parent="1" source="HRm3rRs8Pc81v3qyeUwA-3" target="HRm3rRs8Pc81v3qyeUwA-30">
          <mxGeometry width="50" height="50" relative="1" as="geometry">
            <mxPoint x="300" y="510" as="sourcePoint" />
            <mxPoint x="420" y="520" as="targetPoint" />
          </mxGeometry>
        </mxCell>
        <mxCell id="HRm3rRs8Pc81v3qyeUwA-44" value="" style="endArrow=none;html=1;exitX=0;exitY=0.5;exitDx=0;exitDy=0;entryX=0.75;entryY=1;entryDx=0;entryDy=0;" edge="1" parent="1" source="HRm3rRs8Pc81v3qyeUwA-29" target="HRm3rRs8Pc81v3qyeUwA-3">
          <mxGeometry width="50" height="50" relative="1" as="geometry">
            <mxPoint x="310" y="520" as="sourcePoint" />
            <mxPoint x="430" y="530" as="targetPoint" />
          </mxGeometry>
        </mxCell>
        <mxCell id="HRm3rRs8Pc81v3qyeUwA-45" value="" style="endArrow=none;html=1;exitX=0;exitY=0.5;exitDx=0;exitDy=0;entryX=1;entryY=0.5;entryDx=0;entryDy=0;" edge="1" parent="1" source="HRm3rRs8Pc81v3qyeUwA-33" target="HRm3rRs8Pc81v3qyeUwA-2">
          <mxGeometry width="50" height="50" relative="1" as="geometry">
            <mxPoint x="320" y="530" as="sourcePoint" />
            <mxPoint x="440" y="540" as="targetPoint" />
          </mxGeometry>
        </mxCell>
        <mxCell id="HRm3rRs8Pc81v3qyeUwA-46" value="" style="endArrow=none;html=1;exitX=0;exitY=0.5;exitDx=0;exitDy=0;entryX=1;entryY=0;entryDx=0;entryDy=0;" edge="1" parent="1" source="HRm3rRs8Pc81v3qyeUwA-32" target="HRm3rRs8Pc81v3qyeUwA-2">
          <mxGeometry width="50" height="50" relative="1" as="geometry">
            <mxPoint x="330" y="540" as="sourcePoint" />
            <mxPoint x="450" y="550" as="targetPoint" />
          </mxGeometry>
        </mxCell>
        <mxCell id="HRm3rRs8Pc81v3qyeUwA-47" value="" style="endArrow=none;html=1;exitX=0.5;exitY=1;exitDx=0;exitDy=0;entryX=0.5;entryY=0;entryDx=0;entryDy=0;" edge="1" parent="1" source="HRm3rRs8Pc81v3qyeUwA-1" target="HRm3rRs8Pc81v3qyeUwA-35">
          <mxGeometry width="50" height="50" relative="1" as="geometry">
            <mxPoint x="340" y="550" as="sourcePoint" />
            <mxPoint x="460" y="560" as="targetPoint" />
          </mxGeometry>
        </mxCell>
        <mxCell id="HRm3rRs8Pc81v3qyeUwA-48" value="" style="endArrow=none;html=1;exitX=1;exitY=0.5;exitDx=0;exitDy=0;entryX=0;entryY=0.5;entryDx=0;entryDy=0;" edge="1" parent="1" source="HRm3rRs8Pc81v3qyeUwA-36" target="HRm3rRs8Pc81v3qyeUwA-1">
          <mxGeometry width="50" height="50" relative="1" as="geometry">
            <mxPoint x="350" y="560" as="sourcePoint" />
            <mxPoint x="470" y="570" as="targetPoint" />
          </mxGeometry>
        </mxCell>
        <mxCell id="HRm3rRs8Pc81v3qyeUwA-49" value="" style="endArrow=none;html=1;exitX=1;exitY=0.5;exitDx=0;exitDy=0;entryX=0;entryY=0.5;entryDx=0;entryDy=0;" edge="1" parent="1" source="HRm3rRs8Pc81v3qyeUwA-51" target="HRm3rRs8Pc81v3qyeUwA-4">
          <mxGeometry width="50" height="50" relative="1" as="geometry">
            <mxPoint x="360" y="570" as="sourcePoint" />
            <mxPoint x="250" y="140" as="targetPoint" />
          </mxGeometry>
        </mxCell>
        <mxCell id="HRm3rRs8Pc81v3qyeUwA-50" value="Ngày sinh" style="ellipse;whiteSpace=wrap;html=1;" vertex="1" parent="1">
          <mxGeometry x="290" y="25" width="90" height="50" as="geometry" />
        </mxCell>
        <mxCell id="HRm3rRs8Pc81v3qyeUwA-51" value="Tên nhân viên" style="ellipse;whiteSpace=wrap;html=1;" vertex="1" parent="1">
          <mxGeometry x="20" y="25" width="90" height="50" as="geometry" />
        </mxCell>
        <mxCell id="HRm3rRs8Pc81v3qyeUwA-52" value="" style="endArrow=none;html=1;exitX=0;exitY=0.5;exitDx=0;exitDy=0;entryX=1;entryY=0.5;entryDx=0;entryDy=0;" edge="1" parent="1" source="HRm3rRs8Pc81v3qyeUwA-50" target="HRm3rRs8Pc81v3qyeUwA-4">
          <mxGeometry width="50" height="50" relative="1" as="geometry">
            <mxPoint x="120" y="60" as="sourcePoint" />
            <mxPoint x="140" y="60" as="targetPoint" />
          </mxGeometry>
        </mxCell>
        <mxCell id="HRm3rRs8Pc81v3qyeUwA-53" value="1" style="text;html=1;strokeColor=none;fillColor=none;align=center;verticalAlign=middle;whiteSpace=wrap;rounded=0;" vertex="1" parent="1">
          <mxGeometry x="270" y="245" width="40" height="20" as="geometry" />
        </mxCell>
        <mxCell id="HRm3rRs8Pc81v3qyeUwA-54" value="1" style="text;html=1;strokeColor=none;fillColor=none;align=center;verticalAlign=middle;whiteSpace=wrap;rounded=0;" vertex="1" parent="1">
          <mxGeometry x="540" y="245" width="40" height="20" as="geometry" />
        </mxCell>
        <mxCell id="HRm3rRs8Pc81v3qyeUwA-55" value="n" style="text;html=1;strokeColor=none;fillColor=none;align=center;verticalAlign=middle;whiteSpace=wrap;rounded=0;" vertex="1" parent="1">
          <mxGeometry x="260" y="200" width="40" height="20" as="geometry" />
        </mxCell>
        <mxCell id="HRm3rRs8Pc81v3qyeUwA-56" value="1" style="text;html=1;strokeColor=none;fillColor=none;align=center;verticalAlign=middle;whiteSpace=wrap;rounded=0;" vertex="1" parent="1">
          <mxGeometry x="550" y="200" width="40" height="20" as="geometry" />
        </mxCell>
        <mxCell id="HRm3rRs8Pc81v3qyeUwA-57" value="1" style="text;html=1;strokeColor=none;fillColor=none;align=center;verticalAlign=middle;whiteSpace=wrap;rounded=0;" vertex="1" parent="1">
          <mxGeometry x="650" y="260" width="40" height="25" as="geometry" />
        </mxCell>
        <mxCell id="HRm3rRs8Pc81v3qyeUwA-58" value="1" style="text;html=1;strokeColor=none;fillColor=none;align=center;verticalAlign=middle;whiteSpace=wrap;rounded=0;" vertex="1" parent="1">
          <mxGeometry x="260" y="440" width="40" height="20" as="geometry" />
        </mxCell>
        <mxCell id="HRm3rRs8Pc81v3qyeUwA-59" value="n" style="text;html=1;strokeColor=none;fillColor=none;align=center;verticalAlign=middle;whiteSpace=wrap;rounded=0;" vertex="1" parent="1">
          <mxGeometry x="540" y="440" width="40" height="20" as="geometry" />
        </mxCell>
        <mxCell id="HRm3rRs8Pc81v3qyeUwA-60" value="n" style="text;html=1;strokeColor=none;fillColor=none;align=center;verticalAlign=middle;whiteSpace=wrap;rounded=0;" vertex="1" parent="1">
          <mxGeometry x="655" y="405" width="40" height="20" as="geometry" />
        </mxCell>
        <mxCell id="HRm3rRs8Pc81v3qyeUwA-61" value="1" style="text;html=1;strokeColor=none;fillColor=none;align=center;verticalAlign=middle;whiteSpace=wrap;rounded=0;" vertex="1" parent="1">
          <mxGeometry x="190" y="180" width="40" height="20" as="geometry" />
        </mxCell>
        <mxCell id="HRm3rRs8Pc81v3qyeUwA-62" value="n" style="text;html=1;strokeColor=none;fillColor=none;align=center;verticalAlign=middle;whiteSpace=wrap;rounded=0;" vertex="1" parent="1">
          <mxGeometry x="180" y="80" width="40" height="20" as="geometry" />
        </mxCell>
      </root>
    </mxGraphModel>
  </diagram>
</mxfile>
